<svg width="491" height="288" viewBox="0 0 491 288" fill="none" xmlns="http://www.w3.org/2000/svg">
<path d="M70.495 144L57.679 69.984L46.015 144H37.375L53.215 43.2C47.167 44.544 42.511 47.472 39.247 51.984C35.983 56.4 34.351 62.64 34.351 70.704C34.351 73.968 34.543 76.656 34.927 78.768C35.407 80.784 35.935 82.416 36.511 83.664C37.087 84.912 37.663 85.824 38.239 86.4C38.911 86.88 39.391 87.216 39.679 87.408C34.495 87.408 30.319 86.112 27.151 83.52C23.983 80.832 22.399 76.656 22.399 70.992C22.399 66.288 23.551 61.824 25.855 57.6C28.159 53.28 31.087 49.536 34.639 46.368C38.191 43.2 42.079 40.704 46.303 38.88C50.623 36.96 54.799 36 58.831 36C60.367 36 61.855 36.144 63.295 36.432C64.831 36.72 66.271 37.248 67.615 38.016L82.015 121.68L98.863 38.016H115.279L123.343 144H106.927L101.167 68.544L85.903 144H70.495ZM160.632 71.28C164.376 71.28 167.592 71.856 170.28 73.008C172.968 74.16 175.176 75.792 176.904 77.904C178.632 79.92 179.976 82.32 180.936 85.104C181.992 87.888 182.76 90.864 183.24 94.032H184.104C188.136 94.032 191.832 93.216 195.192 91.584C198.552 89.952 201.432 87.888 203.832 85.392L205.992 89.28C204.072 92.352 201 94.896 196.776 96.912C192.648 98.928 188.376 100.32 183.96 101.088C183.96 102.048 183.96 103.008 183.96 103.968C184.056 104.928 184.104 105.936 184.104 106.992C184.104 118.8 181.944 128.064 177.624 134.784C173.304 141.504 167.256 144.864 159.48 144.864C156.312 144.864 153.096 144.288 149.832 143.136C146.664 141.984 143.784 140.064 141.192 137.376C138.6 134.688 136.488 131.232 134.856 127.008C133.32 122.784 132.552 117.552 132.552 111.312C132.552 107.088 132.984 102.624 133.848 97.92C134.808 93.216 136.344 88.896 138.456 84.96C140.664 81.024 143.544 77.76 147.096 75.168C150.744 72.576 155.256 71.28 160.632 71.28ZM162.072 133.92C167.16 133.92 170.904 131.424 173.304 126.432C175.704 121.344 176.904 114.192 176.904 104.976C176.904 104.4 176.904 103.824 176.904 103.248C176.904 102.672 176.856 102.096 176.76 101.52C173.976 101.328 171.96 100.704 170.712 99.648C169.56 98.592 168.984 96.816 168.984 94.32C168.984 92.112 169.464 90.576 170.424 89.712C171.384 88.752 172.824 88.224 174.744 88.128C173.592 84.768 172.104 82.464 170.28 81.216C168.552 79.872 166.584 79.2 164.376 79.2C161.4 79.2 158.856 80.208 156.744 82.224C154.728 84.144 153.048 86.64 151.704 89.712C150.456 92.784 149.544 96.192 148.968 99.936C148.392 103.584 148.104 107.184 148.104 110.736C148.104 115.44 148.536 119.28 149.4 122.256C150.264 125.232 151.368 127.584 152.712 129.312C154.056 131.04 155.544 132.24 157.176 132.912C158.808 133.584 160.44 133.92 162.072 133.92ZM240.976 95.472C240.976 100.944 240.496 106.608 239.536 112.464C238.672 118.224 237.184 123.504 235.072 128.304C232.96 133.104 230.224 137.088 226.864 140.256C223.504 143.328 219.328 144.864 214.336 144.864C211.84 144.864 209.392 144.432 206.992 143.568C204.688 142.704 202.576 141.456 200.656 139.824C198.832 138.192 197.344 136.128 196.192 133.632C195.136 131.136 194.608 128.304 194.608 125.136V72H209.008V120.96C209.008 122.592 209.104 124.176 209.296 125.712C209.488 127.248 209.872 128.64 210.448 129.888C211.12 131.04 211.984 132 213.04 132.768C214.192 133.536 215.632 133.92 217.36 133.92C220.336 133.92 222.832 132.864 224.848 130.752C226.864 128.544 228.496 125.712 229.744 122.256C231.088 118.8 232.048 114.96 232.624 110.736C233.2 106.416 233.488 102.144 233.488 97.92C233.488 95.232 233.392 92.592 233.2 90C233.008 87.312 232.672 84.912 232.192 82.8C231.712 83.28 231.088 83.616 230.32 83.808C229.552 83.904 228.928 83.952 228.448 83.952C226.144 83.952 224.416 83.136 223.264 81.504C222.112 79.872 221.536 78.144 221.536 76.32C221.536 74.4 222.16 72.72 223.408 71.28C224.656 69.744 226.48 68.976 228.88 68.976C230.512 68.976 232.048 69.456 233.488 70.416C235.024 71.376 236.32 72.912 237.376 75.024C238.528 77.04 239.392 79.728 239.968 83.088C240.64 86.448 240.976 90.576 240.976 95.472ZM249.676 51.264C249.676 48.672 250.588 46.416 252.412 44.496C254.236 42.576 256.492 41.616 259.18 41.616C261.772 41.616 264.028 42.576 265.948 44.496C267.868 46.416 268.828 48.672 268.828 51.264C268.828 53.952 267.868 56.208 265.948 58.032C264.028 59.856 261.772 60.768 259.18 60.768C256.492 60.768 254.236 59.856 252.412 58.032C250.588 56.208 249.676 53.952 249.676 51.264ZM266.668 72V120.96C266.668 122.112 266.668 123.456 266.668 124.992C266.764 126.432 267.004 127.824 267.388 129.168C267.868 130.512 268.492 131.664 269.26 132.624C270.124 133.488 271.372 133.92 273.004 133.92C273.772 133.92 274.684 133.824 275.74 133.632C276.892 133.44 277.756 133.248 278.332 133.056C278.428 133.536 278.476 133.968 278.476 134.352C278.572 134.736 278.62 135.168 278.62 135.648C278.62 137.28 278.236 138.72 277.468 139.968C276.796 141.12 275.884 142.08 274.732 142.848C273.58 143.52 272.284 144 270.844 144.288C269.404 144.672 267.964 144.864 266.524 144.864C263.644 144.864 261.292 144.288 259.468 143.136C257.644 141.888 256.156 140.304 255.004 138.384C253.948 136.368 253.228 134.16 252.844 131.76C252.46 129.36 252.268 126.96 252.268 124.56V72H266.668ZM342.188 55.872C342.188 59.712 341.372 62.688 339.74 64.8C338.204 66.912 336.14 67.968 333.548 67.968C332.204 67.968 331.052 67.728 330.092 67.248C329.228 66.768 328.316 66 327.356 64.944C328.7 63.984 329.708 62.592 330.38 60.768C331.148 58.944 331.532 57.024 331.532 55.008C331.532 53.376 331.244 51.744 330.668 50.112C330.188 48.48 329.372 47.04 328.22 45.792C327.068 44.448 325.628 43.392 323.9 42.624C322.172 41.76 320.108 41.328 317.708 41.328C315.212 41.328 312.956 41.808 310.94 42.768C309.02 43.632 307.388 44.88 306.044 46.512C304.796 48.048 303.836 49.872 303.164 51.984C302.492 54.096 302.156 56.352 302.156 58.752C302.156 63.36 303.26 67.056 305.468 69.84C307.772 72.624 310.604 74.976 313.964 76.896C317.324 78.816 320.972 80.64 324.908 82.368C328.94 84.096 332.636 86.256 335.996 88.848C339.356 91.344 342.14 94.56 344.348 98.496C346.652 102.336 347.804 107.472 347.804 113.904C347.804 119.664 346.844 124.608 344.924 128.736C343.004 132.768 340.46 136.032 337.292 138.528C334.22 141.024 330.668 142.848 326.636 144C322.604 145.152 318.476 145.728 314.252 145.728C310.508 145.728 306.812 145.296 303.164 144.432C299.516 143.568 296.252 142.224 293.372 140.4C290.492 138.48 288.14 136.08 286.316 133.2C284.588 130.224 283.724 126.672 283.724 122.544C283.724 120.144 284.06 117.696 284.732 115.2C285.404 112.704 286.364 110.448 287.612 108.432C288.956 106.416 290.588 104.784 292.508 103.536C294.524 102.192 296.828 101.52 299.42 101.52C301.532 101.52 303.308 102.096 304.748 103.248C306.284 104.4 307.628 106.56 308.78 109.728C306.476 109.824 304.556 110.304 303.02 111.168C301.58 112.032 300.428 113.088 299.564 114.336C298.7 115.584 298.076 116.928 297.692 118.368C297.404 119.808 297.26 121.152 297.26 122.4C297.26 124.992 297.836 127.248 298.988 129.168C300.14 131.088 301.58 132.72 303.308 134.064C305.132 135.312 307.052 136.272 309.068 136.944C311.18 137.52 313.196 137.808 315.116 137.808C319.532 137.808 323.18 136.128 326.06 132.768C328.94 129.408 330.38 124.56 330.38 118.224C330.38 112.848 329.324 108.624 327.212 105.552C325.196 102.384 322.604 99.744 319.436 97.632C316.268 95.52 312.86 93.696 309.212 92.16C305.66 90.624 302.3 88.8 299.132 86.688C295.964 84.576 293.324 81.888 291.212 78.624C289.196 75.264 288.188 70.8 288.188 65.232C288.188 60.432 289.004 56.208 290.636 52.56C292.268 48.912 294.38 45.888 296.972 43.488C299.66 40.992 302.732 39.168 306.188 38.016C309.74 36.768 313.388 36.144 317.132 36.144C318.764 36.144 320.972 36.336 323.756 36.72C326.636 37.104 329.42 37.968 332.108 39.312C334.892 40.656 337.244 42.672 339.164 45.36C341.18 47.952 342.188 51.456 342.188 55.872ZM389.156 94.032C389.924 93.36 390.5 92.304 390.884 90.864C391.364 89.328 391.604 87.888 391.604 86.544C391.604 84.336 390.884 82.512 389.444 81.072C388.1 79.632 386.18 78.912 383.684 78.912C381.092 78.912 378.932 79.872 377.204 81.792C375.476 83.712 374.084 86.16 373.028 89.136C371.972 92.016 371.204 95.28 370.724 98.928C370.34 102.48 370.148 105.984 370.148 109.44C370.148 114.528 370.58 118.656 371.444 121.824C372.404 124.992 373.652 127.488 375.188 129.312C376.724 131.04 378.5 132.24 380.516 132.912C382.628 133.584 384.836 133.92 387.14 133.92C392.228 133.92 396.5 132.672 399.956 130.176C403.508 127.584 406.532 123.6 409.028 118.224H413.924C412.772 121.776 411.14 125.184 409.028 128.448C406.916 131.616 404.468 134.448 401.684 136.944C398.9 139.344 395.876 141.264 392.612 142.704C389.348 144.144 385.94 144.864 382.388 144.864C379.028 144.864 375.716 144.288 372.452 143.136C369.188 141.984 366.26 140.112 363.668 137.52C361.076 134.832 358.964 131.376 357.332 127.152C355.7 122.832 354.884 117.552 354.884 111.312C354.884 107.28 355.22 102.96 355.892 98.352C356.66 93.648 358.004 89.328 359.924 85.392C361.94 81.36 364.676 78 368.132 75.312C371.588 72.624 376.052 71.28 381.524 71.28C387.572 71.28 392.18 72.768 395.348 75.744C398.516 78.624 400.1 82.896 400.1 88.56C400.1 90.96 399.62 92.976 398.66 94.608C397.796 96.24 396.404 97.056 394.484 97.056C392.372 97.056 390.596 96.048 389.156 94.032ZM423.321 43.2V82.944C424.761 80.352 426.201 78.288 427.641 76.752C429.177 75.12 430.713 73.92 432.249 73.152C433.785 72.384 435.225 71.904 436.569 71.712C438.009 71.424 439.353 71.28 440.601 71.28C444.921 71.28 448.377 72.096 450.969 73.728C453.657 75.36 455.673 77.472 457.017 80.064C458.361 82.56 459.225 85.344 459.609 88.416C460.089 91.488 460.329 94.464 460.329 97.344C460.329 100.512 460.185 104.352 459.897 108.864C459.705 113.376 459.609 117.744 459.609 121.968C459.609 122.928 459.657 124.08 459.753 125.424C459.849 126.768 460.137 128.064 460.617 129.312C461.097 130.56 461.817 131.664 462.777 132.624C463.737 133.488 465.129 133.92 466.953 133.92C467.625 133.92 468.441 133.872 469.401 133.776C470.361 133.584 471.081 133.248 471.561 132.768V133.776C471.561 136.368 471.225 138.384 470.553 139.824C469.881 141.264 469.065 142.368 468.105 143.136C467.145 143.904 466.089 144.384 464.937 144.576C463.785 144.768 462.777 144.864 461.913 144.864C458.937 144.864 456.393 144.288 454.281 143.136C452.169 141.888 450.393 140.256 448.953 138.24C447.609 136.224 446.601 133.92 445.929 131.328C445.353 128.64 445.065 125.808 445.065 122.832C445.065 121.968 445.065 120.384 445.065 118.08C445.161 115.68 445.209 113.136 445.209 110.448C445.305 107.76 445.353 105.216 445.353 102.816C445.449 100.416 445.497 98.736 445.497 97.776C445.497 94.704 445.257 92.16 444.777 90.144C444.297 88.128 443.625 86.544 442.761 85.392C441.897 84.24 440.889 83.424 439.737 82.944C438.681 82.464 437.529 82.224 436.281 82.224C433.305 82.224 430.713 83.424 428.505 85.824C426.393 88.224 424.665 92.256 423.321 97.92V144H408.921V45.216L423.321 43.2Z" fill="#FF7324"/>
<path d="M70.495 144L57.679 218.016L46.015 144H37.375L53.215 244.8C47.167 243.456 42.511 240.528 39.247 236.016C35.983 231.6 34.351 225.36 34.351 217.296C34.351 214.032 34.543 211.344 34.927 209.232C35.407 207.216 35.935 205.584 36.511 204.336C37.087 203.088 37.663 202.176 38.239 201.6C38.911 201.12 39.391 200.784 39.679 200.592C34.495 200.592 30.319 201.888 27.151 204.48C23.983 207.168 22.399 211.344 22.399 217.008C22.399 221.712 23.551 226.176 25.855 230.4C28.159 234.72 31.087 238.464 34.639 241.632C38.191 244.8 42.079 247.296 46.303 249.12C50.623 251.04 54.799 252 58.831 252C60.367 252 61.855 251.856 63.295 251.568C64.831 251.28 66.271 250.752 67.615 249.984L82.015 166.32L98.863 249.984H115.279L123.343 144H106.927L101.167 219.456L85.903 144H70.495ZM160.632 216.72C164.376 216.72 167.592 216.144 170.28 214.992C172.968 213.84 175.176 212.208 176.904 210.096C178.632 208.08 179.976 205.68 180.936 202.896C181.992 200.112 182.76 197.136 183.24 193.968H184.104C188.136 193.968 191.832 194.784 195.192 196.416C198.552 198.048 201.432 200.112 203.832 202.608L205.992 198.72C204.072 195.648 201 193.104 196.776 191.088C192.648 189.072 188.376 187.68 183.96 186.912C183.96 185.952 183.96 184.992 183.96 184.032C184.056 183.072 184.104 182.064 184.104 181.008C184.104 169.2 181.944 159.936 177.624 153.216C173.304 146.496 167.256 143.136 159.48 143.136C156.312 143.136 153.096 143.712 149.832 144.864C146.664 146.016 143.784 147.936 141.192 150.624C138.6 153.312 136.488 156.768 134.856 160.992C133.32 165.216 132.552 170.448 132.552 176.688C132.552 180.912 132.984 185.376 133.848 190.08C134.808 194.784 136.344 199.104 138.456 203.04C140.664 206.976 143.544 210.24 147.096 212.832C150.744 215.424 155.256 216.72 160.632 216.72ZM162.072 154.08C167.16 154.08 170.904 156.576 173.304 161.568C175.704 166.656 176.904 173.808 176.904 183.024C176.904 183.6 176.904 184.176 176.904 184.752C176.904 185.328 176.856 185.904 176.76 186.48C173.976 186.672 171.96 187.296 170.712 188.352C169.56 189.408 168.984 191.184 168.984 193.68C168.984 195.888 169.464 197.424 170.424 198.288C171.384 199.248 172.824 199.776 174.744 199.872C173.592 203.232 172.104 205.536 170.28 206.784C168.552 208.128 166.584 208.8 164.376 208.8C161.4 208.8 158.856 207.792 156.744 205.776C154.728 203.856 153.048 201.36 151.704 198.288C150.456 195.216 149.544 191.808 148.968 188.064C148.392 184.416 148.104 180.816 148.104 177.264C148.104 172.56 148.536 168.72 149.4 165.744C150.264 162.768 151.368 160.416 152.712 158.688C154.056 156.96 155.544 155.76 157.176 155.088C158.808 154.416 160.44 154.08 162.072 154.08ZM240.976 192.528C240.976 187.056 240.496 181.392 239.536 175.536C238.672 169.776 237.184 164.496 235.072 159.696C232.96 154.896 230.224 150.912 226.864 147.744C223.504 144.672 219.328 143.136 214.336 143.136C211.84 143.136 209.392 143.568 206.992 144.432C204.688 145.296 202.576 146.544 200.656 148.176C198.832 149.808 197.344 151.872 196.192 154.368C195.136 156.864 194.608 159.696 194.608 162.864V216H209.008V167.04C209.008 165.408 209.104 163.824 209.296 162.288C209.488 160.752 209.872 159.36 210.448 158.112C211.12 156.96 211.984 156 213.04 155.232C214.192 154.464 215.632 154.08 217.36 154.08C220.336 154.08 222.832 155.136 224.848 157.248C226.864 159.456 228.496 162.288 229.744 165.744C231.088 169.2 232.048 173.04 232.624 177.264C233.2 181.584 233.488 185.856 233.488 190.08C233.488 192.768 233.392 195.408 233.2 198C233.008 200.688 232.672 203.088 232.192 205.2C231.712 204.72 231.088 204.384 230.32 204.192C229.552 204.096 228.928 204.048 228.448 204.048C226.144 204.048 224.416 204.864 223.264 206.496C222.112 208.128 221.536 209.856 221.536 211.68C221.536 213.6 222.16 215.28 223.408 216.72C224.656 218.256 226.48 219.024 228.88 219.024C230.512 219.024 232.048 218.544 233.488 217.584C235.024 216.624 236.32 215.088 237.376 212.976C238.528 210.96 239.392 208.272 239.968 204.912C240.64 201.552 240.976 197.424 240.976 192.528ZM249.676 236.736C249.676 239.328 250.588 241.584 252.412 243.504C254.236 245.424 256.492 246.384 259.18 246.384C261.772 246.384 264.028 245.424 265.948 243.504C267.868 241.584 268.828 239.328 268.828 236.736C268.828 234.048 267.868 231.792 265.948 229.968C264.028 228.144 261.772 227.232 259.18 227.232C256.492 227.232 254.236 228.144 252.412 229.968C250.588 231.792 249.676 234.048 249.676 236.736ZM266.668 216V167.04C266.668 165.888 266.668 164.544 266.668 163.008C266.764 161.568 267.004 160.176 267.388 158.832C267.868 157.488 268.492 156.336 269.26 155.376C270.124 154.512 271.372 154.08 273.004 154.08C273.772 154.08 274.684 154.176 275.74 154.368C276.892 154.56 277.756 154.752 278.332 154.944C278.428 154.464 278.476 154.032 278.476 153.648C278.572 153.264 278.62 152.832 278.62 152.352C278.62 150.72 278.236 149.28 277.468 148.032C276.796 146.88 275.884 145.92 274.732 145.152C273.58 144.48 272.284 144 270.844 143.712C269.404 143.328 267.964 143.136 266.524 143.136C263.644 143.136 261.292 143.712 259.468 144.864C257.644 146.112 256.156 147.696 255.004 149.616C253.948 151.632 253.228 153.84 252.844 156.24C252.46 158.64 252.268 161.04 252.268 163.44V216H266.668ZM342.188 232.128C342.188 228.288 341.372 225.312 339.74 223.2C338.204 221.088 336.14 220.032 333.548 220.032C332.204 220.032 331.052 220.272 330.092 220.752C329.228 221.232 328.316 222 327.356 223.056C328.7 224.016 329.708 225.408 330.38 227.232C331.148 229.056 331.532 230.976 331.532 232.992C331.532 234.624 331.244 236.256 330.668 237.888C330.188 239.52 329.372 240.96 328.22 242.208C327.068 243.552 325.628 244.608 323.9 245.376C322.172 246.24 320.108 246.672 317.708 246.672C315.212 246.672 312.956 246.192 310.94 245.232C309.02 244.368 307.388 243.12 306.044 241.488C304.796 239.952 303.836 238.128 303.164 236.016C302.492 233.904 302.156 231.648 302.156 229.248C302.156 224.64 303.26 220.944 305.468 218.16C307.772 215.376 310.604 213.024 313.964 211.104C317.324 209.184 320.972 207.36 324.908 205.632C328.94 203.904 332.636 201.744 335.996 199.152C339.356 196.656 342.14 193.44 344.348 189.504C346.652 185.664 347.804 180.528 347.804 174.096C347.804 168.336 346.844 163.392 344.924 159.264C343.004 155.232 340.46 151.968 337.292 149.472C334.22 146.976 330.668 145.152 326.636 144C322.604 142.848 318.476 142.272 314.252 142.272C310.508 142.272 306.812 142.704 303.164 143.568C299.516 144.432 296.252 145.776 293.372 147.6C290.492 149.52 288.14 151.92 286.316 154.8C284.588 157.776 283.724 161.328 283.724 165.456C283.724 167.856 284.06 170.304 284.732 172.8C285.404 175.296 286.364 177.552 287.612 179.568C288.956 181.584 290.588 183.216 292.508 184.464C294.524 185.808 296.828 186.48 299.42 186.48C301.532 186.48 303.308 185.904 304.748 184.752C306.284 183.6 307.628 181.44 308.78 178.272C306.476 178.176 304.556 177.696 303.02 176.832C301.58 175.968 300.428 174.912 299.564 173.664C298.7 172.416 298.076 171.072 297.692 169.632C297.404 168.192 297.26 166.848 297.26 165.6C297.26 163.008 297.836 160.752 298.988 158.832C300.14 156.912 301.58 155.28 303.308 153.936C305.132 152.688 307.052 151.728 309.068 151.056C311.18 150.48 313.196 150.192 315.116 150.192C319.532 150.192 323.18 151.872 326.06 155.232C328.94 158.592 330.38 163.44 330.38 169.776C330.38 175.152 329.324 179.376 327.212 182.448C325.196 185.616 322.604 188.256 319.436 190.368C316.268 192.48 312.86 194.304 309.212 195.84C305.66 197.376 302.3 199.2 299.132 201.312C295.964 203.424 293.324 206.112 291.212 209.376C289.196 212.736 288.188 217.2 288.188 222.768C288.188 227.568 289.004 231.792 290.636 235.44C292.268 239.088 294.38 242.112 296.972 244.512C299.66 247.008 302.732 248.832 306.188 249.984C309.74 251.232 313.388 251.856 317.132 251.856C318.764 251.856 320.972 251.664 323.756 251.28C326.636 250.896 329.42 250.032 332.108 248.688C334.892 247.344 337.244 245.328 339.164 242.64C341.18 240.048 342.188 236.544 342.188 232.128ZM389.156 193.968C389.924 194.64 390.5 195.696 390.884 197.136C391.364 198.672 391.604 200.112 391.604 201.456C391.604 203.664 390.884 205.488 389.444 206.928C388.1 208.368 386.18 209.088 383.684 209.088C381.092 209.088 378.932 208.128 377.204 206.208C375.476 204.288 374.084 201.84 373.028 198.864C371.972 195.984 371.204 192.72 370.724 189.072C370.34 185.52 370.148 182.016 370.148 178.56C370.148 173.472 370.58 169.344 371.444 166.176C372.404 163.008 373.652 160.512 375.188 158.688C376.724 156.96 378.5 155.76 380.516 155.088C382.628 154.416 384.836 154.08 387.14 154.08C392.228 154.08 396.5 155.328 399.956 157.824C403.508 160.416 406.532 164.4 409.028 169.776H413.924C412.772 166.224 411.14 162.816 409.028 159.552C406.916 156.384 404.468 153.552 401.684 151.056C398.9 148.656 395.876 146.736 392.612 145.296C389.348 143.856 385.94 143.136 382.388 143.136C379.028 143.136 375.716 143.712 372.452 144.864C369.188 146.016 366.26 147.888 363.668 150.48C361.076 153.168 358.964 156.624 357.332 160.848C355.7 165.168 354.884 170.448 354.884 176.688C354.884 180.72 355.22 185.04 355.892 189.648C356.66 194.352 358.004 198.672 359.924 202.608C361.94 206.64 364.676 210 368.132 212.688C371.588 215.376 376.052 216.72 381.524 216.72C387.572 216.72 392.18 215.232 395.348 212.256C398.516 209.376 400.1 205.104 400.1 199.44C400.1 197.04 399.62 195.024 398.66 193.392C397.796 191.76 396.404 190.944 394.484 190.944C392.372 190.944 390.596 191.952 389.156 193.968ZM423.321 244.8V205.056C424.761 207.648 426.201 209.712 427.641 211.248C429.177 212.88 430.713 214.08 432.249 214.848C433.785 215.616 435.225 216.096 436.569 216.288C438.009 216.576 439.353 216.72 440.601 216.72C444.921 216.72 448.377 215.904 450.969 214.272C453.657 212.64 455.673 210.528 457.017 207.936C458.361 205.44 459.225 202.656 459.609 199.584C460.089 196.512 460.329 193.536 460.329 190.656C460.329 187.488 460.185 183.648 459.897 179.136C459.705 174.624 459.609 170.256 459.609 166.032C459.609 165.072 459.657 163.92 459.753 162.576C459.849 161.232 460.137 159.936 460.617 158.688C461.097 157.44 461.817 156.336 462.777 155.376C463.737 154.512 465.129 154.08 466.953 154.08C467.625 154.08 468.441 154.128 469.401 154.224C470.361 154.416 471.081 154.752 471.561 155.232V154.224C471.561 151.632 471.225 149.616 470.553 148.176C469.881 146.736 469.065 145.632 468.105 144.864C467.145 144.096 466.089 143.616 464.937 143.424C463.785 143.232 462.777 143.136 461.913 143.136C458.937 143.136 456.393 143.712 454.281 144.864C452.169 146.112 450.393 147.744 448.953 149.76C447.609 151.776 446.601 154.08 445.929 156.672C445.353 159.36 445.065 162.192 445.065 165.168C445.065 166.032 445.065 167.616 445.065 169.92C445.161 172.32 445.209 174.864 445.209 177.552C445.305 180.24 445.353 182.784 445.353 185.184C445.449 187.584 445.497 189.264 445.497 190.224C445.497 193.296 445.257 195.84 444.777 197.856C444.297 199.872 443.625 201.456 442.761 202.608C441.897 203.76 440.889 204.576 439.737 205.056C438.681 205.536 437.529 205.776 436.281 205.776C433.305 205.776 430.713 204.576 428.505 202.176C426.393 199.776 424.665 195.744 423.321 190.08V144H408.921V242.784L423.321 244.8Z" fill="url(#paint0_linear)"/>
<defs>
<linearGradient id="paint0_linear" x1="245.5" y1="288" x2="245.5" y2="144" gradientUnits="userSpaceOnUse">
<stop offset="0.0001" stop-color="#FFE5D7" stop-opacity="0"/>
<stop offset="0.0002" stop-color="#2E2E2E" stop-opacity="0"/>
<stop offset="0.177083" stop-color="#2E2E2E" stop-opacity="0"/>
<stop offset="0.364583" stop-color="#2E2E2E" stop-opacity="0"/>
<stop offset="0.682292" stop-color="#FFA572" stop-opacity="0.04"/>
<stop offset="1" stop-color="#FF7324" stop-opacity="0.22"/>
</linearGradient>
</defs>
</svg>
