<svg width="411" height="144" viewBox="0 0 411 144" fill="none" xmlns="http://www.w3.org/2000/svg">
<path d="M117.998 72L111.59 34.992L105.758 72H101.438L109.358 21.6C106.334 22.272 104.006 23.736 102.374 25.992C100.742 28.2 99.9255 31.32 99.9255 35.352C99.9255 36.984 100.022 38.328 100.214 39.384C100.454 40.392 100.718 41.208 101.006 41.832C101.294 42.456 101.582 42.912 101.87 43.2C102.206 43.44 102.446 43.608 102.59 43.704C99.9975 43.704 97.9095 43.056 96.3255 41.76C94.7415 40.416 93.9495 38.328 93.9495 35.496C93.9495 33.144 94.5255 30.912 95.6775 28.8C96.8295 26.64 98.2935 24.768 100.07 23.184C101.846 21.6 103.79 20.352 105.902 19.44C108.062 18.48 110.15 18 112.166 18C112.934 18 113.678 18.072 114.398 18.216C115.166 18.36 115.886 18.624 116.558 19.008L123.758 60.84L132.182 19.008H140.39L144.422 72H136.214L133.334 34.272L125.702 72H117.998ZM163.066 35.64C164.938 35.64 166.546 35.928 167.89 36.504C169.234 37.08 170.338 37.896 171.202 38.952C172.066 39.96 172.738 41.16 173.218 42.552C173.746 43.944 174.13 45.432 174.37 47.016H174.802C176.818 47.016 178.666 46.608 180.346 45.792C182.026 44.976 183.466 43.944 184.666 42.696L185.746 44.64C184.786 46.176 183.25 47.448 181.138 48.456C179.074 49.464 176.938 50.16 174.73 50.544C174.73 51.024 174.73 51.504 174.73 51.984C174.778 52.464 174.802 52.968 174.802 53.496C174.802 59.4 173.722 64.032 171.562 67.392C169.402 70.752 166.378 72.432 162.49 72.432C160.906 72.432 159.298 72.144 157.666 71.568C156.082 70.992 154.642 70.032 153.346 68.688C152.05 67.344 150.994 65.616 150.178 63.504C149.41 61.392 149.026 58.776 149.026 55.656C149.026 53.544 149.242 51.312 149.674 48.96C150.154 46.608 150.922 44.448 151.978 42.48C153.082 40.512 154.522 38.88 156.298 37.584C158.122 36.288 160.378 35.64 163.066 35.64ZM163.786 66.96C166.33 66.96 168.202 65.712 169.402 63.216C170.602 60.672 171.202 57.096 171.202 52.488C171.202 52.2 171.202 51.912 171.202 51.624C171.202 51.336 171.178 51.048 171.13 50.76C169.738 50.664 168.73 50.352 168.106 49.824C167.53 49.296 167.242 48.408 167.242 47.16C167.242 46.056 167.482 45.288 167.962 44.856C168.442 44.376 169.162 44.112 170.122 44.064C169.546 42.384 168.802 41.232 167.89 40.608C167.026 39.936 166.042 39.6 164.938 39.6C163.45 39.6 162.178 40.104 161.122 41.112C160.114 42.072 159.274 43.32 158.602 44.856C157.978 46.392 157.522 48.096 157.234 49.968C156.946 51.792 156.802 53.592 156.802 55.368C156.802 57.72 157.018 59.64 157.45 61.128C157.882 62.616 158.434 63.792 159.106 64.656C159.778 65.52 160.522 66.12 161.338 66.456C162.154 66.792 162.97 66.96 163.786 66.96ZM203.238 47.736C203.238 50.472 202.998 53.304 202.518 56.232C202.086 59.112 201.342 61.752 200.286 64.152C199.23 66.552 197.862 68.544 196.182 70.128C194.502 71.664 192.414 72.432 189.918 72.432C188.67 72.432 187.446 72.216 186.246 71.784C185.094 71.352 184.038 70.728 183.078 69.912C182.166 69.096 181.422 68.064 180.846 66.816C180.318 65.568 180.054 64.152 180.054 62.568V36H187.254V60.48C187.254 61.296 187.302 62.088 187.398 62.856C187.494 63.624 187.686 64.32 187.974 64.944C188.31 65.52 188.742 66 189.27 66.384C189.846 66.768 190.566 66.96 191.43 66.96C192.918 66.96 194.166 66.432 195.174 65.376C196.182 64.272 196.998 62.856 197.622 61.128C198.294 59.4 198.774 57.48 199.062 55.368C199.35 53.208 199.494 51.072 199.494 48.96C199.494 47.616 199.446 46.296 199.35 45C199.254 43.656 199.086 42.456 198.846 41.4C198.606 41.64 198.294 41.808 197.91 41.904C197.526 41.952 197.214 41.976 196.974 41.976C195.822 41.976 194.958 41.568 194.382 40.752C193.806 39.936 193.518 39.072 193.518 38.16C193.518 37.2 193.83 36.36 194.454 35.64C195.078 34.872 195.99 34.488 197.19 34.488C198.006 34.488 198.774 34.728 199.494 35.208C200.262 35.688 200.91 36.456 201.438 37.512C202.014 38.52 202.446 39.864 202.734 41.544C203.07 43.224 203.238 45.288 203.238 47.736ZM207.588 25.632C207.588 24.336 208.044 23.208 208.956 22.248C209.868 21.288 210.996 20.808 212.34 20.808C213.636 20.808 214.764 21.288 215.724 22.248C216.684 23.208 217.164 24.336 217.164 25.632C217.164 26.976 216.684 28.104 215.724 29.016C214.764 29.928 213.636 30.384 212.34 30.384C210.996 30.384 209.868 29.928 208.956 29.016C208.044 28.104 207.588 26.976 207.588 25.632ZM216.084 36V60.48C216.084 61.056 216.084 61.728 216.084 62.496C216.132 63.216 216.252 63.912 216.444 64.584C216.684 65.256 216.996 65.832 217.38 66.312C217.812 66.744 218.436 66.96 219.252 66.96C219.636 66.96 220.092 66.912 220.62 66.816C221.196 66.72 221.628 66.624 221.916 66.528C221.964 66.768 221.988 66.984 221.988 67.176C222.036 67.368 222.06 67.584 222.06 67.824C222.06 68.64 221.868 69.36 221.484 69.984C221.148 70.56 220.692 71.04 220.116 71.424C219.54 71.76 218.892 72 218.172 72.144C217.452 72.336 216.732 72.432 216.012 72.432C214.572 72.432 213.396 72.144 212.484 71.568C211.572 70.944 210.828 70.152 210.252 69.192C209.724 68.184 209.364 67.08 209.172 65.88C208.98 64.68 208.884 63.48 208.884 62.28V36H216.084ZM253.844 27.936C253.844 29.856 253.436 31.344 252.62 32.4C251.852 33.456 250.82 33.984 249.524 33.984C248.852 33.984 248.276 33.864 247.796 33.624C247.364 33.384 246.908 33 246.428 32.472C247.1 31.992 247.604 31.296 247.94 30.384C248.324 29.472 248.516 28.512 248.516 27.504C248.516 26.688 248.372 25.872 248.084 25.056C247.844 24.24 247.436 23.52 246.86 22.896C246.284 22.224 245.564 21.696 244.7 21.312C243.836 20.88 242.804 20.664 241.604 20.664C240.356 20.664 239.228 20.904 238.22 21.384C237.26 21.816 236.444 22.44 235.772 23.256C235.148 24.024 234.668 24.936 234.332 25.992C233.996 27.048 233.828 28.176 233.828 29.376C233.828 31.68 234.38 33.528 235.484 34.92C236.636 36.312 238.052 37.488 239.732 38.448C241.412 39.408 243.236 40.32 245.204 41.184C247.22 42.048 249.068 43.128 250.748 44.424C252.428 45.672 253.82 47.28 254.924 49.248C256.076 51.168 256.652 53.736 256.652 56.952C256.652 59.832 256.172 62.304 255.212 64.368C254.252 66.384 252.98 68.016 251.396 69.264C249.86 70.512 248.084 71.424 246.068 72C244.052 72.576 241.988 72.864 239.876 72.864C238.004 72.864 236.156 72.648 234.332 72.216C232.508 71.784 230.876 71.112 229.436 70.2C227.996 69.24 226.82 68.04 225.908 66.6C225.044 65.112 224.612 63.336 224.612 61.272C224.612 60.072 224.78 58.848 225.116 57.6C225.452 56.352 225.932 55.224 226.556 54.216C227.228 53.208 228.044 52.392 229.004 51.768C230.012 51.096 231.164 50.76 232.46 50.76C233.516 50.76 234.404 51.048 235.124 51.624C235.892 52.2 236.564 53.28 237.14 54.864C235.988 54.912 235.028 55.152 234.26 55.584C233.54 56.016 232.964 56.544 232.532 57.168C232.1 57.792 231.788 58.464 231.596 59.184C231.452 59.904 231.38 60.576 231.38 61.2C231.38 62.496 231.668 63.624 232.244 64.584C232.82 65.544 233.54 66.36 234.404 67.032C235.316 67.656 236.276 68.136 237.284 68.472C238.34 68.76 239.348 68.904 240.308 68.904C242.516 68.904 244.34 68.064 245.78 66.384C247.22 64.704 247.94 62.28 247.94 59.112C247.94 56.424 247.412 54.312 246.356 52.776C245.348 51.192 244.052 49.872 242.468 48.816C240.884 47.76 239.18 46.848 237.356 46.08C235.58 45.312 233.9 44.4 232.316 43.344C230.732 42.288 229.412 40.944 228.356 39.312C227.348 37.632 226.844 35.4 226.844 32.616C226.844 30.216 227.252 28.104 228.068 26.28C228.884 24.456 229.94 22.944 231.236 21.744C232.58 20.496 234.116 19.584 235.844 19.008C237.62 18.384 239.444 18.072 241.316 18.072C242.132 18.072 243.236 18.168 244.628 18.36C246.068 18.552 247.46 18.984 248.804 19.656C250.196 20.328 251.372 21.336 252.332 22.68C253.34 23.976 253.844 25.728 253.844 27.936ZM277.328 47.016C277.712 46.68 278 46.152 278.192 45.432C278.432 44.664 278.552 43.944 278.552 43.272C278.552 42.168 278.192 41.256 277.472 40.536C276.8 39.816 275.84 39.456 274.592 39.456C273.296 39.456 272.216 39.936 271.352 40.896C270.488 41.856 269.792 43.08 269.264 44.568C268.736 46.008 268.352 47.64 268.112 49.464C267.92 51.24 267.824 52.992 267.824 54.72C267.824 57.264 268.04 59.328 268.472 60.912C268.952 62.496 269.576 63.744 270.344 64.656C271.112 65.52 272 66.12 273.008 66.456C274.064 66.792 275.168 66.96 276.32 66.96C278.864 66.96 281 66.336 282.728 65.088C284.504 63.792 286.016 61.8 287.264 59.112H289.712C289.136 60.888 288.32 62.592 287.264 64.224C286.208 65.808 284.984 67.224 283.592 68.472C282.2 69.672 280.688 70.632 279.056 71.352C277.424 72.072 275.72 72.432 273.944 72.432C272.264 72.432 270.608 72.144 268.976 71.568C267.344 70.992 265.88 70.056 264.584 68.76C263.288 67.416 262.232 65.688 261.416 63.576C260.6 61.416 260.192 58.776 260.192 55.656C260.192 53.64 260.36 51.48 260.696 49.176C261.08 46.824 261.752 44.664 262.712 42.696C263.72 40.68 265.088 39 266.816 37.656C268.544 36.312 270.776 35.64 273.512 35.64C276.536 35.64 278.84 36.384 280.424 37.872C282.008 39.312 282.8 41.448 282.8 44.28C282.8 45.48 282.56 46.488 282.08 47.304C281.648 48.12 280.952 48.528 279.992 48.528C278.936 48.528 278.048 48.024 277.328 47.016ZM294.41 21.6V41.472C295.13 40.176 295.85 39.144 296.57 38.376C297.338 37.56 298.106 36.96 298.874 36.576C299.642 36.192 300.362 35.952 301.034 35.856C301.754 35.712 302.426 35.64 303.05 35.64C305.21 35.64 306.938 36.048 308.234 36.864C309.578 37.68 310.586 38.736 311.258 40.032C311.93 41.28 312.362 42.672 312.554 44.208C312.794 45.744 312.914 47.232 312.914 48.672C312.914 50.256 312.842 52.176 312.698 54.432C312.602 56.688 312.554 58.872 312.554 60.984C312.554 61.464 312.578 62.04 312.626 62.712C312.674 63.384 312.818 64.032 313.058 64.656C313.298 65.28 313.658 65.832 314.138 66.312C314.618 66.744 315.314 66.96 316.226 66.96C316.562 66.96 316.97 66.936 317.45 66.888C317.93 66.792 318.29 66.624 318.53 66.384V66.888C318.53 68.184 318.362 69.192 318.026 69.912C317.69 70.632 317.282 71.184 316.802 71.568C316.322 71.952 315.794 72.192 315.218 72.288C314.642 72.384 314.138 72.432 313.706 72.432C312.218 72.432 310.946 72.144 309.89 71.568C308.834 70.944 307.946 70.128 307.226 69.12C306.554 68.112 306.05 66.96 305.714 65.664C305.426 64.32 305.282 62.904 305.282 61.416C305.282 60.984 305.282 60.192 305.282 59.04C305.33 57.84 305.354 56.568 305.354 55.224C305.402 53.88 305.426 52.608 305.426 51.408C305.474 50.208 305.498 49.368 305.498 48.888C305.498 47.352 305.378 46.08 305.138 45.072C304.898 44.064 304.562 43.272 304.13 42.696C303.698 42.12 303.194 41.712 302.618 41.472C302.09 41.232 301.514 41.112 300.89 41.112C299.402 41.112 298.106 41.712 297.002 42.912C295.946 44.112 295.082 46.128 294.41 48.96V72H287.21V22.608L294.41 21.6Z" fill="#FF7324"/>
<path d="M117.998 72L111.59 109.008L105.758 72H101.438L109.358 122.4C106.334 121.728 104.006 120.264 102.374 118.008C100.742 115.8 99.9255 112.68 99.9255 108.648C99.9255 107.016 100.022 105.672 100.214 104.616C100.454 103.608 100.718 102.792 101.006 102.168C101.294 101.544 101.582 101.088 101.87 100.8C102.206 100.56 102.446 100.392 102.59 100.296C99.9975 100.296 97.9095 100.944 96.3255 102.24C94.7415 103.584 93.9495 105.672 93.9495 108.504C93.9495 110.856 94.5255 113.088 95.6775 115.2C96.8295 117.36 98.2935 119.232 100.07 120.816C101.846 122.4 103.79 123.648 105.902 124.56C108.062 125.52 110.15 126 112.166 126C112.934 126 113.678 125.928 114.398 125.784C115.166 125.64 115.886 125.376 116.558 124.992L123.758 83.16L132.182 124.992H140.39L144.422 72H136.214L133.334 109.728L125.702 72H117.998ZM163.066 108.36C164.938 108.36 166.546 108.072 167.89 107.496C169.234 106.92 170.338 106.104 171.202 105.048C172.066 104.04 172.738 102.84 173.218 101.448C173.746 100.056 174.13 98.568 174.37 96.984H174.802C176.818 96.984 178.666 97.392 180.346 98.208C182.026 99.024 183.466 100.056 184.666 101.304L185.746 99.36C184.786 97.824 183.25 96.552 181.138 95.544C179.074 94.536 176.938 93.84 174.73 93.456C174.73 92.976 174.73 92.496 174.73 92.016C174.778 91.536 174.802 91.032 174.802 90.504C174.802 84.6 173.722 79.968 171.562 76.608C169.402 73.248 166.378 71.568 162.49 71.568C160.906 71.568 159.298 71.856 157.666 72.432C156.082 73.008 154.642 73.968 153.346 75.312C152.05 76.656 150.994 78.384 150.178 80.496C149.41 82.608 149.026 85.224 149.026 88.344C149.026 90.456 149.242 92.688 149.674 95.04C150.154 97.392 150.922 99.552 151.978 101.52C153.082 103.488 154.522 105.12 156.298 106.416C158.122 107.712 160.378 108.36 163.066 108.36ZM163.786 77.04C166.33 77.04 168.202 78.288 169.402 80.784C170.602 83.328 171.202 86.904 171.202 91.512C171.202 91.8 171.202 92.088 171.202 92.376C171.202 92.664 171.178 92.952 171.13 93.24C169.738 93.336 168.73 93.648 168.106 94.176C167.53 94.704 167.242 95.592 167.242 96.84C167.242 97.944 167.482 98.712 167.962 99.144C168.442 99.624 169.162 99.888 170.122 99.936C169.546 101.616 168.802 102.768 167.89 103.392C167.026 104.064 166.042 104.4 164.938 104.4C163.45 104.4 162.178 103.896 161.122 102.888C160.114 101.928 159.274 100.68 158.602 99.144C157.978 97.608 157.522 95.904 157.234 94.032C156.946 92.208 156.802 90.408 156.802 88.632C156.802 86.28 157.018 84.36 157.45 82.872C157.882 81.384 158.434 80.208 159.106 79.344C159.778 78.48 160.522 77.88 161.338 77.544C162.154 77.208 162.97 77.04 163.786 77.04ZM203.238 96.264C203.238 93.528 202.998 90.696 202.518 87.768C202.086 84.888 201.342 82.248 200.286 79.848C199.23 77.448 197.862 75.456 196.182 73.872C194.502 72.336 192.414 71.568 189.918 71.568C188.67 71.568 187.446 71.784 186.246 72.216C185.094 72.648 184.038 73.272 183.078 74.088C182.166 74.904 181.422 75.936 180.846 77.184C180.318 78.432 180.054 79.848 180.054 81.432V108H187.254V83.52C187.254 82.704 187.302 81.912 187.398 81.144C187.494 80.376 187.686 79.68 187.974 79.056C188.31 78.48 188.742 78 189.27 77.616C189.846 77.232 190.566 77.04 191.43 77.04C192.918 77.04 194.166 77.568 195.174 78.624C196.182 79.728 196.998 81.144 197.622 82.872C198.294 84.6 198.774 86.52 199.062 88.632C199.35 90.792 199.494 92.928 199.494 95.04C199.494 96.384 199.446 97.704 199.35 99C199.254 100.344 199.086 101.544 198.846 102.6C198.606 102.36 198.294 102.192 197.91 102.096C197.526 102.048 197.214 102.024 196.974 102.024C195.822 102.024 194.958 102.432 194.382 103.248C193.806 104.064 193.518 104.928 193.518 105.84C193.518 106.8 193.83 107.64 194.454 108.36C195.078 109.128 195.99 109.512 197.19 109.512C198.006 109.512 198.774 109.272 199.494 108.792C200.262 108.312 200.91 107.544 201.438 106.488C202.014 105.48 202.446 104.136 202.734 102.456C203.07 100.776 203.238 98.712 203.238 96.264ZM207.588 118.368C207.588 119.664 208.044 120.792 208.956 121.752C209.868 122.712 210.996 123.192 212.34 123.192C213.636 123.192 214.764 122.712 215.724 121.752C216.684 120.792 217.164 119.664 217.164 118.368C217.164 117.024 216.684 115.896 215.724 114.984C214.764 114.072 213.636 113.616 212.34 113.616C210.996 113.616 209.868 114.072 208.956 114.984C208.044 115.896 207.588 117.024 207.588 118.368ZM216.084 108V83.52C216.084 82.944 216.084 82.272 216.084 81.504C216.132 80.784 216.252 80.088 216.444 79.416C216.684 78.744 216.996 78.168 217.38 77.688C217.812 77.256 218.436 77.04 219.252 77.04C219.636 77.04 220.092 77.088 220.62 77.184C221.196 77.28 221.628 77.376 221.916 77.472C221.964 77.232 221.988 77.016 221.988 76.824C222.036 76.632 222.06 76.416 222.06 76.176C222.06 75.36 221.868 74.64 221.484 74.016C221.148 73.44 220.692 72.96 220.116 72.576C219.54 72.24 218.892 72 218.172 71.856C217.452 71.664 216.732 71.568 216.012 71.568C214.572 71.568 213.396 71.856 212.484 72.432C211.572 73.056 210.828 73.848 210.252 74.808C209.724 75.816 209.364 76.92 209.172 78.12C208.98 79.32 208.884 80.52 208.884 81.72V108H216.084ZM253.844 116.064C253.844 114.144 253.436 112.656 252.62 111.6C251.852 110.544 250.82 110.016 249.524 110.016C248.852 110.016 248.276 110.136 247.796 110.376C247.364 110.616 246.908 111 246.428 111.528C247.1 112.008 247.604 112.704 247.94 113.616C248.324 114.528 248.516 115.488 248.516 116.496C248.516 117.312 248.372 118.128 248.084 118.944C247.844 119.76 247.436 120.48 246.86 121.104C246.284 121.776 245.564 122.304 244.7 122.688C243.836 123.12 242.804 123.336 241.604 123.336C240.356 123.336 239.228 123.096 238.22 122.616C237.26 122.184 236.444 121.56 235.772 120.744C235.148 119.976 234.668 119.064 234.332 118.008C233.996 116.952 233.828 115.824 233.828 114.624C233.828 112.32 234.38 110.472 235.484 109.08C236.636 107.688 238.052 106.512 239.732 105.552C241.412 104.592 243.236 103.68 245.204 102.816C247.22 101.952 249.068 100.872 250.748 99.576C252.428 98.328 253.82 96.72 254.924 94.752C256.076 92.832 256.652 90.264 256.652 87.048C256.652 84.168 256.172 81.696 255.212 79.632C254.252 77.616 252.98 75.984 251.396 74.736C249.86 73.488 248.084 72.576 246.068 72C244.052 71.424 241.988 71.136 239.876 71.136C238.004 71.136 236.156 71.352 234.332 71.784C232.508 72.216 230.876 72.888 229.436 73.8C227.996 74.76 226.82 75.96 225.908 77.4C225.044 78.888 224.612 80.664 224.612 82.728C224.612 83.928 224.78 85.152 225.116 86.4C225.452 87.648 225.932 88.776 226.556 89.784C227.228 90.792 228.044 91.608 229.004 92.232C230.012 92.904 231.164 93.24 232.46 93.24C233.516 93.24 234.404 92.952 235.124 92.376C235.892 91.8 236.564 90.72 237.14 89.136C235.988 89.088 235.028 88.848 234.26 88.416C233.54 87.984 232.964 87.456 232.532 86.832C232.1 86.208 231.788 85.536 231.596 84.816C231.452 84.096 231.38 83.424 231.38 82.8C231.38 81.504 231.668 80.376 232.244 79.416C232.82 78.456 233.54 77.64 234.404 76.968C235.316 76.344 236.276 75.864 237.284 75.528C238.34 75.24 239.348 75.096 240.308 75.096C242.516 75.096 244.34 75.936 245.78 77.616C247.22 79.296 247.94 81.72 247.94 84.888C247.94 87.576 247.412 89.688 246.356 91.224C245.348 92.808 244.052 94.128 242.468 95.184C240.884 96.24 239.18 97.152 237.356 97.92C235.58 98.688 233.9 99.6 232.316 100.656C230.732 101.712 229.412 103.056 228.356 104.688C227.348 106.368 226.844 108.6 226.844 111.384C226.844 113.784 227.252 115.896 228.068 117.72C228.884 119.544 229.94 121.056 231.236 122.256C232.58 123.504 234.116 124.416 235.844 124.992C237.62 125.616 239.444 125.928 241.316 125.928C242.132 125.928 243.236 125.832 244.628 125.64C246.068 125.448 247.46 125.016 248.804 124.344C250.196 123.672 251.372 122.664 252.332 121.32C253.34 120.024 253.844 118.272 253.844 116.064ZM277.328 96.984C277.712 97.32 278 97.848 278.192 98.568C278.432 99.336 278.552 100.056 278.552 100.728C278.552 101.832 278.192 102.744 277.472 103.464C276.8 104.184 275.84 104.544 274.592 104.544C273.296 104.544 272.216 104.064 271.352 103.104C270.488 102.144 269.792 100.92 269.264 99.432C268.736 97.992 268.352 96.36 268.112 94.536C267.92 92.76 267.824 91.008 267.824 89.28C267.824 86.736 268.04 84.672 268.472 83.088C268.952 81.504 269.576 80.256 270.344 79.344C271.112 78.48 272 77.88 273.008 77.544C274.064 77.208 275.168 77.04 276.32 77.04C278.864 77.04 281 77.664 282.728 78.912C284.504 80.208 286.016 82.2 287.264 84.888H289.712C289.136 83.112 288.32 81.408 287.264 79.776C286.208 78.192 284.984 76.776 283.592 75.528C282.2 74.328 280.688 73.368 279.056 72.648C277.424 71.928 275.72 71.568 273.944 71.568C272.264 71.568 270.608 71.856 268.976 72.432C267.344 73.008 265.88 73.944 264.584 75.24C263.288 76.584 262.232 78.312 261.416 80.424C260.6 82.584 260.192 85.224 260.192 88.344C260.192 90.36 260.36 92.52 260.696 94.824C261.08 97.176 261.752 99.336 262.712 101.304C263.72 103.32 265.088 105 266.816 106.344C268.544 107.688 270.776 108.36 273.512 108.36C276.536 108.36 278.84 107.616 280.424 106.128C282.008 104.688 282.8 102.552 282.8 99.72C282.8 98.52 282.56 97.512 282.08 96.696C281.648 95.88 280.952 95.472 279.992 95.472C278.936 95.472 278.048 95.976 277.328 96.984ZM294.41 122.4V102.528C295.13 103.824 295.85 104.856 296.57 105.624C297.338 106.44 298.106 107.04 298.874 107.424C299.642 107.808 300.362 108.048 301.034 108.144C301.754 108.288 302.426 108.36 303.05 108.36C305.21 108.36 306.938 107.952 308.234 107.136C309.578 106.32 310.586 105.264 311.258 103.968C311.93 102.72 312.362 101.328 312.554 99.792C312.794 98.256 312.914 96.768 312.914 95.328C312.914 93.744 312.842 91.824 312.698 89.568C312.602 87.312 312.554 85.128 312.554 83.016C312.554 82.536 312.578 81.96 312.626 81.288C312.674 80.616 312.818 79.968 313.058 79.344C313.298 78.72 313.658 78.168 314.138 77.688C314.618 77.256 315.314 77.04 316.226 77.04C316.562 77.04 316.97 77.064 317.45 77.112C317.93 77.208 318.29 77.376 318.53 77.616V77.112C318.53 75.816 318.362 74.808 318.026 74.088C317.69 73.368 317.282 72.816 316.802 72.432C316.322 72.048 315.794 71.808 315.218 71.712C314.642 71.616 314.138 71.568 313.706 71.568C312.218 71.568 310.946 71.856 309.89 72.432C308.834 73.056 307.946 73.872 307.226 74.88C306.554 75.888 306.05 77.04 305.714 78.336C305.426 79.68 305.282 81.096 305.282 82.584C305.282 83.016 305.282 83.808 305.282 84.96C305.33 86.16 305.354 87.432 305.354 88.776C305.402 90.12 305.426 91.392 305.426 92.592C305.474 93.792 305.498 94.632 305.498 95.112C305.498 96.648 305.378 97.92 305.138 98.928C304.898 99.936 304.562 100.728 304.13 101.304C303.698 101.88 303.194 102.288 302.618 102.528C302.09 102.768 301.514 102.888 300.89 102.888C299.402 102.888 298.106 102.288 297.002 101.088C295.946 99.888 295.082 97.872 294.41 95.04V72H287.21V121.392L294.41 122.4Z" fill="url(#paint0_linear)"/>
<defs>
<linearGradient id="paint0_linear" x1="205.5" y1="144" x2="205.5" y2="72" gradientUnits="userSpaceOnUse">
<stop offset="0.0001" stop-color="#FFE5D7" stop-opacity="0"/>
<stop offset="0.0002" stop-color="#2E2E2E" stop-opacity="0"/>
<stop offset="0.177083" stop-color="#2E2E2E" stop-opacity="0"/>
<stop offset="0.364583" stop-color="#2E2E2E" stop-opacity="0"/>
<stop offset="0.682292" stop-color="#FFA572" stop-opacity="0.04"/>
<stop offset="1" stop-color="#FF7324" stop-opacity="0.22"/>
</linearGradient>
</defs>
</svg>
